<svg width="95" height="32" viewBox="0 0 95 32" fill="none" xmlns="http://www.w3.org/2000/svg">
<g clip-path="url(#clip0_3_203)">
<path d="M49.1458 5.71631V25.0909H44.6687V5.71631H49.1458Z" fill="#2A3342"/>
<path d="M66.1618 17.5505C66.1618 17.9694 66.1357 18.4058 66.0833 18.8596H55.9509C56.0207 19.7673 56.3087 20.4654 56.8149 20.9542C57.3386 21.4254 57.9757 21.6611 58.7262 21.6611C59.8433 21.6611 60.62 21.1898 61.0564 20.2473H65.8215C65.5771 21.2073 65.132 22.0713 64.4862 22.8393C63.8578 23.6073 63.0637 24.2094 62.1037 24.6458C61.1437 25.0822 60.0702 25.3004 58.8833 25.3004C57.452 25.3004 56.1778 24.9949 55.0607 24.384C53.9437 23.7731 53.0709 22.9004 52.4426 21.7658C51.8142 20.6313 51.5 19.3047 51.5 17.7862C51.5 16.2676 51.8055 14.9411 52.4164 13.8065C53.0447 12.672 53.9175 11.7993 55.0346 11.1884C56.1517 10.5774 57.4346 10.272 58.8833 10.272C60.2971 10.272 61.5538 10.5687 62.6535 11.1622C63.7531 11.7556 64.6084 12.6022 65.2193 13.7018C65.8477 14.8014 66.1618 16.0844 66.1618 17.5505ZM61.58 16.3724C61.58 15.6044 61.3182 14.9934 60.7946 14.5396C60.2709 14.0858 59.6164 13.8589 58.8309 13.8589C58.0804 13.8589 57.4433 14.0771 56.9197 14.5134C56.4135 14.9498 56.0993 15.5694 55.9771 16.3724H61.58Z" fill="#2A3342"/>
<path d="M77.1638 25.0909L74.3624 21.0327L72.006 25.0909H67.1624L71.9798 17.6291L67.0315 10.4814H72.0584L74.8598 14.5134L77.2162 10.4814H82.0598L77.1638 17.8385L82.1907 25.0909H77.1638Z" fill="#2A3342"/>
<g filter="url(#filter0_d_3_203)">
<path d="M30.4989 8.50867L18.6887 28.9788H42V32H13L26.6034 8.50867H30.4989ZM24.5629 23.4297L36.3731 3.02119H13V0H42L28.4584 23.4297H24.5629Z" fill="#397DEC"/>
</g>
</g>
<defs>
<filter id="filter0_d_3_203" x="-97" y="-110" width="249" height="252" filterUnits="userSpaceOnUse" color-interpolation-filters="sRGB">
<feFlood flood-opacity="0" result="BackgroundImageFix"/>
<feColorMatrix in="SourceAlpha" type="matrix" values="0 0 0 0 0 0 0 0 0 0 0 0 0 0 0 0 0 0 127 0" result="hardAlpha"/>
<feOffset/>
<feGaussianBlur stdDeviation="55"/>
<feComposite in2="hardAlpha" operator="out"/>
<feColorMatrix type="matrix" values="0 0 0 0 0 0 0 0 0 0 0 0 0 0 0 0 0 0 0.35 0"/>
<feBlend mode="normal" in2="BackgroundImageFix" result="effect1_dropShadow_3_203"/>
<feBlend mode="normal" in="SourceGraphic" in2="effect1_dropShadow_3_203" result="shape"/>
</filter>
<clipPath id="clip0_3_203">
<rect width="95" height="32" fill="white"/>
</clipPath>
</defs>
</svg>
